<svg width="30" height="30" viewBox="0 0 30 30" fill="none" xmlns="http://www.w3.org/2000/svg">
<path d="M29.5538 6.17147C28.51 6.63397 27.3888 6.94647 26.21 7.08772C27.4263 6.35996 28.3362 5.21455 28.77 3.86522C27.6273 4.54396 26.3767 5.02171 25.0725 5.27772C24.1955 4.3413 23.0338 3.72063 21.7679 3.51206C20.502 3.3035 19.2026 3.51871 18.0716 4.12428C16.9405 4.72986 16.041 5.69192 15.5127 6.8611C14.9844 8.03028 14.8569 9.34116 15.15 10.5902C12.8346 10.474 10.5695 9.87216 8.50179 8.82385C6.43404 7.77554 4.60982 6.30417 3.14751 4.50522C2.64751 5.36772 2.36001 6.36772 2.36001 7.43272C2.35946 8.39146 2.59556 9.33552 3.04736 10.1811C3.49917 11.0267 4.15272 11.7478 4.95001 12.2802C4.02536 12.2508 3.12111 12.0009 2.31251 11.5515V11.6265C2.31242 12.9711 2.77756 14.2744 3.62899 15.3152C4.48043 16.356 5.66573 17.0701 6.98376 17.3365C6.12599 17.5686 5.22669 17.6028 4.35376 17.4365C4.72564 18.5935 5.45001 19.6053 6.42547 20.3301C7.40094 21.055 8.57866 21.4567 9.79376 21.479C7.73106 23.0982 5.18362 23.9766 2.56126 23.9727C2.09674 23.9728 1.63261 23.9457 1.17126 23.8915C3.83311 25.6029 6.93169 26.5112 10.0963 26.5077C20.8088 26.5077 26.665 17.6352 26.665 9.94022C26.665 9.69022 26.6588 9.43772 26.6475 9.18772C27.7866 8.36394 28.7699 7.34384 29.5513 6.17522L29.5538 6.17147V6.17147Z" fill="#717F85"/>
</svg>
