<svg width="36" height="36" viewBox="0 0 36 36" fill="none" xmlns="http://www.w3.org/2000/svg">
<path d="M18 13.3134C15.4196 13.3134 13.3137 15.4193 13.3137 17.9998C13.3137 20.5802 15.4196 22.6861 18 22.6861C20.5805 22.6861 22.6864 20.5802 22.6864 17.9998C22.6864 15.4193 20.5805 13.3134 18 13.3134ZM32.0555 17.9998C32.0555 16.0592 32.0731 14.1361 31.9641 12.199C31.8551 9.94899 31.3418 7.95212 29.6965 6.30681C28.0477 4.65798 26.0543 4.14821 23.8043 4.03923C21.8637 3.93024 19.9407 3.94782 18.0036 3.94782C16.0629 3.94782 14.1399 3.93024 12.2028 4.03923C9.95278 4.14821 7.9559 4.66149 6.31059 6.30681C4.66176 7.95564 4.152 9.94899 4.04301 12.199C3.93403 14.1396 3.95161 16.0627 3.95161 17.9998C3.95161 19.9369 3.93403 21.8634 4.04301 23.8006C4.152 26.0506 4.66528 28.0474 6.31059 29.6927C7.95942 31.3416 9.95278 31.8513 12.2028 31.9603C14.1434 32.0693 16.0664 32.0517 18.0036 32.0517C19.9442 32.0517 21.8672 32.0693 23.8043 31.9603C26.0543 31.8513 28.0512 31.3381 29.6965 29.6927C31.3454 28.0439 31.8551 26.0506 31.9641 23.8006C32.0766 21.8634 32.0555 19.9404 32.0555 17.9998V17.9998ZM18 25.2103C14.0098 25.2103 10.7895 21.99 10.7895 17.9998C10.7895 14.0095 14.0098 10.7892 18 10.7892C21.9903 10.7892 25.2106 14.0095 25.2106 17.9998C25.2106 21.99 21.9903 25.2103 18 25.2103ZM25.5059 12.1779C24.5743 12.1779 23.8219 11.4256 23.8219 10.4939C23.8219 9.56228 24.5743 8.80993 25.5059 8.80993C26.4375 8.80993 27.1899 9.56228 27.1899 10.4939C27.1902 10.7151 27.1468 10.9342 27.0623 11.1387C26.9777 11.3431 26.8537 11.5289 26.6973 11.6853C26.5409 11.8417 26.3551 11.9658 26.1507 12.0503C25.9462 12.1348 25.7271 12.1782 25.5059 12.1779V12.1779Z" fill="#717F85"/>
</svg>
