<svg width="25" height="25" viewBox="0 0 25 25" fill="none" xmlns="http://www.w3.org/2000/svg">
<path d="M5.76695 22.798C5.93546 22.8856 6.12465 22.9257 6.31422 22.914C6.5038 22.9022 6.68659 22.8391 6.84299 22.7313L20.3847 13.3563C20.523 13.2604 20.6361 13.1325 20.7142 12.9833C20.7923 12.8342 20.8331 12.6684 20.8331 12.5001C20.8331 12.3317 20.7923 12.1659 20.7142 12.0168C20.6361 11.8676 20.523 11.7397 20.3847 11.6438L6.84299 2.26881C6.68672 2.16067 6.50384 2.09735 6.31415 2.0857C6.12447 2.07405 5.93522 2.11451 5.76688 2.2027C5.59854 2.29089 5.45754 2.42346 5.35914 2.58603C5.26073 2.74861 5.20868 2.93502 5.20862 3.12506V21.8751C5.20859 22.0652 5.2606 22.2517 5.35902 22.4144C5.45744 22.5771 5.59852 22.7097 5.76695 22.798Z" fill="white"/>
</svg>
