<svg width="60" height="60" viewBox="0 0 60 60" fill="none" xmlns="http://www.w3.org/2000/svg">
<circle cx="30" cy="30" r="29.5" transform="rotate(90 30 30)" stroke="white"/>
<path fill-rule="evenodd" clip-rule="evenodd" d="M42 29.7123C42 29.9271 41.9266 30.133 41.796 30.2848C41.6654 30.4367 41.4883 30.522 41.3036 30.522L19.6287 30.522L24.0117 35.6161C24.1425 35.7681 24.216 35.9743 24.216 36.1893C24.216 36.4043 24.1425 36.6104 24.0117 36.7625C23.881 36.9145 23.7036 36.9999 23.5187 36.9999C23.3338 36.9999 23.1564 36.9145 23.0257 36.7625L17.4546 30.2856C17.3897 30.2104 17.3383 30.121 17.3032 30.0226C17.2681 29.9243 17.25 29.8188 17.25 29.7124C17.25 29.6059 17.2681 29.5004 17.3032 29.4021C17.3383 29.3037 17.3897 29.2143 17.4546 29.1391L23.0257 22.6622C23.1564 22.5102 23.3338 22.4248 23.5187 22.4248C23.7036 22.4248 23.881 22.5102 24.0117 22.6622C24.1425 22.8143 24.216 23.0204 24.216 23.2354C24.216 23.4504 24.1425 23.6566 24.0117 23.8086L19.6287 28.9027L41.3036 28.9027C41.4883 28.9027 41.6654 28.988 41.796 29.1399C41.9266 29.2917 42 29.4976 42 29.7123Z" fill="white"/>
</svg>
