<svg width="28" height="29" viewBox="0 0 28 29" fill="none" xmlns="http://www.w3.org/2000/svg">
<path d="M5.12253 15.7092L5.19403 15.5957L9.57192 8.74916C9.58658 8.72665 9.60702 8.7085 9.63109 8.69659C9.65517 8.68468 9.682 8.67946 9.70879 8.68146C9.73558 8.68347 9.76133 8.69263 9.78337 8.70799C9.8054 8.72335 9.82291 8.74434 9.83406 8.76878C10.563 10.4075 11.1966 12.4458 10.8994 13.7144C10.7761 14.2359 10.4298 14.9424 10.0387 15.5957C9.98855 15.6912 9.93382 15.7843 9.87471 15.8746C9.86055 15.8948 9.84161 15.9111 9.81959 15.9221C9.79757 15.9331 9.77316 15.9385 9.74855 15.9377H5.2529C5.22607 15.9381 5.19962 15.9313 5.17638 15.9179C5.15313 15.9044 5.13394 15.885 5.12086 15.8616C5.10778 15.8381 5.10129 15.8116 5.10208 15.7848C5.10286 15.7579 5.1109 15.7318 5.12534 15.7092H5.12253ZM24.6275 18.0643C24.6278 18.0942 24.6194 18.1236 24.6032 18.1487C24.587 18.1739 24.5638 18.1938 24.5364 18.2058C24.1957 18.3502 23.0364 18.8857 22.5542 19.5544C21.3234 21.2674 20.3842 23.7178 18.2814 23.7178H9.51444C8.77423 23.7167 8.04149 23.5698 7.3581 23.2853C6.67471 23.0009 6.05406 22.5846 5.53163 22.0602C5.0092 21.5359 4.59522 20.9137 4.31336 20.2292C4.0315 19.5448 3.88727 18.8115 3.88893 18.0713V17.9703C3.88893 17.889 3.95622 17.8217 4.04033 17.8217H8.92568C9.02381 17.8217 9.0939 17.9101 9.08689 18.0068C9.05044 18.3236 9.11072 18.6502 9.26212 18.946C9.55089 19.5348 10.1537 19.9021 10.8027 19.9021H13.2223V18.0138H10.8279C10.7999 18.0135 10.7725 18.0056 10.7486 17.9908C10.7247 17.9761 10.7053 17.9551 10.6925 17.9301C10.6796 17.9052 10.6738 17.8772 10.6757 17.8492C10.6776 17.8212 10.6871 17.7943 10.7032 17.7713L10.7915 17.6451C11.0158 17.3213 11.3396 16.8237 11.662 16.2545C11.8807 15.8704 12.0938 15.4611 12.2648 15.0489C12.2985 14.9761 12.3251 14.899 12.3559 14.8247C12.4022 14.6929 12.4499 14.5695 12.4835 14.4476C12.5165 14.3442 12.5469 14.2399 12.5746 14.135C12.6545 13.7845 12.6882 13.4144 12.6882 13.0317C12.6882 12.8803 12.6826 12.7219 12.6685 12.5733C12.6615 12.4093 12.6405 12.2439 12.6209 12.0799C12.6052 11.9331 12.5828 11.7872 12.5536 11.6425C12.5159 11.4222 12.47 11.2034 12.4162 10.9865L12.3966 10.9024C12.3545 10.751 12.3181 10.608 12.2704 10.458C12.1369 9.99735 11.9835 9.54273 11.8106 9.09541C11.7504 8.92715 11.684 8.76115 11.6116 8.59776C11.5106 8.34824 11.4069 8.12254 11.313 7.91087C11.2662 7.82018 11.2223 7.72809 11.1812 7.63471C11.1356 7.53397 11.0875 7.43441 11.0368 7.33612C11.0032 7.26182 10.9625 7.19033 10.9359 7.12304L10.6401 6.57914C10.5995 6.50484 10.6667 6.41372 10.748 6.43755L12.5985 6.938H12.6125L12.855 7.00809L13.1241 7.08379L13.2223 7.11043V6.0128C13.2223 5.48151 13.6456 5.05115 14.1741 5.05115C14.2989 5.05082 14.4225 5.07573 14.5374 5.12439C14.6523 5.17306 14.7562 5.24446 14.8428 5.33432C15.0218 5.51485 15.1225 5.75858 15.1231 6.0128V7.64452L15.3208 7.69919C15.3348 7.7062 15.3516 7.71321 15.3642 7.72302C15.4119 7.75667 15.482 7.80994 15.5703 7.87722C15.6404 7.93049 15.7147 7.99778 15.8016 8.06927C16.0784 8.2948 16.3468 8.53047 16.6063 8.77579C16.9063 9.05475 17.2427 9.38138 17.5651 9.74445C17.6562 9.84819 17.7431 9.94912 17.8343 10.0613C17.9212 10.172 18.0193 10.2799 18.1006 10.3865C18.2113 10.5323 18.3249 10.6837 18.43 10.8407C18.4763 10.915 18.5338 10.9921 18.5772 11.0664C18.7118 11.2654 18.8267 11.4701 18.9375 11.6762C18.9852 11.7701 19.0314 11.8738 19.0721 11.9748C19.1968 12.2509 19.295 12.5299 19.3552 12.813C19.3752 12.8731 19.3888 12.9352 19.3959 12.9981V13.0121C19.4155 13.092 19.4225 13.1803 19.4295 13.27C19.469 13.6844 19.4183 14.1023 19.2809 14.4952C19.2375 14.613 19.1968 14.7335 19.1436 14.8513C19.0384 15.0896 18.9179 15.3321 18.7735 15.555C18.7258 15.6391 18.6683 15.726 18.6151 15.8101C18.5548 15.8985 18.4903 15.9826 18.437 16.0625C18.36 16.1686 18.2791 16.2719 18.1945 16.3723C18.1202 16.4732 18.0459 16.5741 17.9618 16.6652C17.8483 16.8026 17.7375 16.9316 17.6184 17.055C17.5511 17.1363 17.4782 17.2204 17.3997 17.2933C17.3268 17.3774 17.2483 17.4517 17.181 17.519C17.0633 17.6367 16.9707 17.725 16.8894 17.8021L16.6974 17.9731C16.6706 18 16.6343 18.0151 16.5964 18.0152H15.1231V19.9021H16.9763C17.3899 19.9021 17.7838 19.7563 18.1034 19.4843C18.2113 19.3904 18.6852 18.9797 19.2473 18.36C19.2656 18.339 19.2902 18.3242 19.3174 18.318L24.434 16.8363C24.4565 16.8298 24.4802 16.8286 24.5032 16.8328C24.5262 16.8369 24.5479 16.8464 24.5667 16.8604C24.5854 16.8744 24.6006 16.8925 24.6112 16.9134C24.6218 16.9342 24.6273 16.9573 24.6275 16.9807V18.0643Z" fill="white"/>
</svg>
