<svg width="64" height="64" viewBox="0 0 64 64" fill="none" xmlns="http://www.w3.org/2000/svg">
<path d="M25.2371 19.3843C25.2371 21.2534 23.617 22.7686 21.6186 22.7686C19.6201 22.7686 18 21.2534 18 19.3843C18 17.5152 19.6201 16 21.6186 16C23.617 16 25.2371 17.5152 25.2371 19.3843Z" fill="#717F85"/>
<path d="M18.4948 25.2562H24.6804V44H18.4948V25.2562Z" fill="#717F85"/>
<path d="M34.6392 25.2562H28.4536V44H34.6392C34.6392 44 34.6392 38.0992 34.6392 34.4097C34.6392 32.1952 35.3953 29.9711 38.4124 29.9711C41.822 29.9711 41.8015 32.8691 41.7856 35.1142C41.7648 38.0489 41.8144 41.0437 41.8144 44H48V34.1074C47.9476 27.7908 46.3016 24.8802 40.8866 24.8802C37.6708 24.8802 35.6774 26.3401 34.6392 27.661V25.2562Z" fill="#717F85"/>
</svg>
