<svg width="60" height="60" viewBox="0 0 60 60" fill="none" xmlns="http://www.w3.org/2000/svg">
<circle r="29.5" transform="matrix(4.37114e-08 -1 -1 -4.37114e-08 30 30)" fill="white" fill-opacity="0.1" stroke="white"/>
<path fill-rule="evenodd" clip-rule="evenodd" d="M42.75 30.2877C42.75 30.0729 42.6766 29.867 42.546 29.7152C42.4154 29.5633 42.2383 29.478 42.0536 29.478L20.3787 29.478L24.7617 24.3839C24.8925 24.2319 24.966 24.0257 24.966 23.8107C24.966 23.5957 24.8925 23.3896 24.7617 23.2375C24.631 23.0855 24.4536 23.0001 24.2687 23.0001C24.0838 23.0001 23.9064 23.0855 23.7757 23.2375L18.2046 29.7144C18.1397 29.7896 18.0883 29.879 18.0532 29.9774C18.0181 30.0757 18 30.1812 18 30.2876C18 30.3941 18.0181 30.4996 18.0532 30.5979C18.0883 30.6963 18.1397 30.7857 18.2046 30.8609L23.7757 37.3378C23.9064 37.4898 24.0838 37.5752 24.2687 37.5752C24.4536 37.5752 24.631 37.4898 24.7617 37.3378C24.8925 37.1857 24.966 36.9796 24.966 36.7646C24.966 36.5496 24.8925 36.3434 24.7617 36.1914L20.3787 31.0973L42.0536 31.0973C42.2383 31.0973 42.4154 31.012 42.546 30.8601C42.6766 30.7083 42.75 30.5024 42.75 30.2877Z" fill="white"/>
</svg>
