<svg width="40" height="40" viewBox="0 0 40 40" fill="none" xmlns="http://www.w3.org/2000/svg">
<path d="M3.33337 9.99984C3.33337 9.11578 3.68456 8.26794 4.30968 7.64281C4.93481 7.01769 5.78265 6.6665 6.66671 6.6665H33.3334C34.2174 6.6665 35.0653 7.01769 35.6904 7.64281C36.3155 8.26794 36.6667 9.11578 36.6667 9.99984V29.9998C36.6667 30.8839 36.3155 31.7317 35.6904 32.3569C35.0653 32.982 34.2174 33.3332 33.3334 33.3332H6.66671C5.78265 33.3332 4.93481 32.982 4.30968 32.3569C3.68456 31.7317 3.33337 30.8839 3.33337 29.9998V9.99984ZM9.19837 9.99984L20 19.4515L30.8017 9.99984H9.20004H9.19837ZM33.3334 12.2148L21.0984 22.9215C20.7944 23.1878 20.4041 23.3346 20 23.3346C19.596 23.3346 19.2056 23.1878 18.9017 22.9215L6.66671 12.2148V29.9998H33.3334V12.2148Z" fill="white"/>
</svg>
