<svg width="49" height="49" viewBox="0 0 49 49" fill="none" xmlns="http://www.w3.org/2000/svg">
<circle cx="24.5" cy="24.5" r="24.0917" transform="rotate(-90 24.5 24.5)" stroke="white" stroke-width="0.816667"/>
<path fill-rule="evenodd" clip-rule="evenodd" d="M14.7 24.5C14.7 24.3556 14.7599 24.2172 14.8665 24.1151C14.9732 24.013 15.1178 23.9557 15.2687 23.9557L32.9698 23.9557L29.3904 20.5305C29.2836 20.4283 29.2236 20.2896 29.2236 20.1451C29.2236 20.0005 29.2836 19.8619 29.3904 19.7597C29.4972 19.6574 29.642 19.6 29.793 19.6C29.944 19.6 30.0889 19.6574 30.1957 19.7597L34.7454 24.1146C34.7983 24.1652 34.8404 24.2253 34.869 24.2914C34.8977 24.3575 34.9125 24.4284 34.9125 24.5C34.9125 24.5716 34.8977 24.6425 34.869 24.7087C34.8404 24.7748 34.7983 24.8349 34.7454 24.8854L30.1957 29.2404C30.0889 29.3426 29.944 29.4 29.793 29.4C29.642 29.4 29.4972 29.3426 29.3904 29.2404C29.2836 29.1382 29.2236 28.9995 29.2236 28.855C29.2236 28.7104 29.2836 28.5718 29.3904 28.4696L32.9698 25.0444L15.2687 25.0444C15.1178 25.0444 14.9732 24.987 14.8665 24.8849C14.7599 24.7829 14.7 24.6444 14.7 24.5Z" fill="white"/>
</svg>
