<svg width="28" height="29" viewBox="0 0 28 29" fill="none" xmlns="http://www.w3.org/2000/svg">
<path d="M21.4461 7.89669C20.1239 7.30043 18.7068 6.85972 17.2248 6.60912C17.2116 6.60658 17.1979 6.60822 17.1857 6.61379C17.1734 6.61936 17.1632 6.6286 17.1565 6.64023C16.975 6.95909 16.7728 7.37475 16.6311 7.70312C15.0593 7.46828 13.4613 7.46828 11.8895 7.70312C11.7317 7.3392 11.5537 6.98435 11.3564 6.64023C11.3497 6.62846 11.3396 6.61901 11.3274 6.61314C11.3152 6.60728 11.3015 6.60527 11.2881 6.60739C9.80697 6.85799 8.38978 7.2987 7.06678 7.89582C7.0554 7.9006 7.04575 7.90874 7.03912 7.91915C4.34992 11.8726 3.61281 15.7284 3.97488 19.5358C3.97589 19.5451 3.97878 19.5541 3.98339 19.5623C3.98799 19.5705 3.99421 19.5776 4.00167 19.5833C5.57129 20.7261 7.32199 21.5966 9.18047 22.1585C9.19342 22.1625 9.20728 22.1624 9.22023 22.1584C9.23318 22.1544 9.24462 22.1466 9.25305 22.136C9.65297 21.6012 10.0074 21.0337 10.3125 20.4397C10.3167 20.4316 10.3192 20.4226 10.3196 20.4135C10.3201 20.4043 10.3186 20.3952 10.3153 20.3867C10.3119 20.3781 10.3068 20.3704 10.3002 20.3641C10.2936 20.3577 10.2857 20.3529 10.2771 20.3498C9.71883 20.1396 9.17795 19.8859 8.65939 19.5911C8.65007 19.5858 8.64222 19.5782 8.63654 19.5691C8.63086 19.56 8.62752 19.5497 8.62684 19.539C8.62615 19.5282 8.62814 19.5175 8.63261 19.5078C8.63709 19.498 8.64391 19.4895 8.65248 19.4831C8.76136 19.4027 8.87024 19.3189 8.97394 19.2351C8.98327 19.2275 8.99451 19.2227 9.00641 19.2212C9.01831 19.2197 9.03041 19.2215 9.04134 19.2264C12.4348 20.7508 16.11 20.7508 19.4637 19.2264C19.4747 19.2212 19.4869 19.2192 19.499 19.2205C19.5111 19.2219 19.5225 19.2266 19.532 19.2342C19.6357 19.3189 19.7437 19.4027 19.8535 19.4831C19.8621 19.4894 19.8691 19.4978 19.8737 19.5075C19.8783 19.5171 19.8804 19.5278 19.8799 19.5385C19.8794 19.5492 19.8762 19.5596 19.8707 19.5688C19.8652 19.578 19.8575 19.5856 19.8483 19.5911C19.3315 19.8884 18.794 20.1398 18.2297 20.349C18.2211 20.3521 18.2132 20.3571 18.2066 20.3635C18.2 20.3699 18.1948 20.3777 18.1915 20.3863C18.1881 20.3949 18.1867 20.4041 18.1871 20.4133C18.1876 20.4225 18.1901 20.4315 18.1943 20.4397C18.5054 21.0334 18.8614 21.5985 19.2529 22.1351C19.261 22.1461 19.2724 22.1544 19.2854 22.1587C19.2983 22.163 19.3124 22.1633 19.3255 22.1593C21.1871 21.5991 22.9407 20.7281 24.5121 19.5833C24.5197 19.578 24.5262 19.571 24.5309 19.563C24.5357 19.5549 24.5387 19.546 24.5397 19.5367C24.9718 15.1347 23.8156 11.31 21.4729 7.92088C21.4671 7.90987 21.4576 7.90128 21.4461 7.89669ZM10.8197 17.2173C9.79833 17.2173 8.95579 16.2935 8.95579 15.1607C8.95579 14.0269 9.78191 13.104 10.8197 13.104C11.8654 13.104 12.7001 14.0347 12.6837 15.1607C12.6837 16.2944 11.8576 17.2173 10.8197 17.2173ZM17.7113 17.2173C16.689 17.2173 15.8473 16.2935 15.8473 15.1607C15.8473 14.0269 16.6726 13.104 17.7113 13.104C18.7569 13.104 19.5916 14.0347 19.5752 15.1607C19.5752 16.2944 18.7577 17.2173 17.7113 17.2173Z" fill="white"/>
</svg>
