<svg width="28" height="29" viewBox="0 0 28 29" fill="none" xmlns="http://www.w3.org/2000/svg">
<path d="M23.8018 8.45174C23.0981 8.76355 22.3422 8.97423 21.5475 9.06946C22.3674 8.57882 22.9809 7.8066 23.2734 6.8969C22.503 7.3545 21.6598 7.67659 20.7806 7.84919C20.1893 7.21787 19.4061 6.79942 18.5527 6.65881C17.6992 6.5182 16.8232 6.66329 16.0607 7.07156C15.2981 7.47983 14.6917 8.12844 14.3355 8.91668C13.9794 9.70492 13.8934 10.5887 14.091 11.4308C12.53 11.3524 11.0029 10.9467 9.60887 10.2399C8.21483 9.53318 6.98496 8.54121 5.9991 7.32838C5.66201 7.90987 5.46818 8.58405 5.46818 9.30206C5.46781 9.94842 5.62698 10.5849 5.93158 11.155C6.23618 11.7251 6.6768 12.2112 7.21432 12.5702C6.59093 12.5503 5.9813 12.3819 5.43616 12.0789V12.1294C5.4361 13.036 5.74968 13.9146 6.32371 14.6163C6.89774 15.318 7.69684 15.7994 8.58544 15.979C8.00715 16.1355 7.40085 16.1586 6.81234 16.0464C7.06305 16.8265 7.55141 17.5086 8.20905 17.9973C8.86669 18.486 9.6607 18.7568 10.4799 18.7718C9.08925 19.8635 7.37182 20.4557 5.60386 20.4531C5.29069 20.4531 4.97778 20.4349 4.66675 20.3983C6.46132 21.5521 8.55033 22.1645 10.6838 22.1621C17.906 22.1621 21.8542 16.1804 21.8542 10.9926C21.8542 10.824 21.85 10.6538 21.8424 10.4852C22.6104 9.92987 23.2733 9.24213 23.8001 8.45427L23.8018 8.45174Z" fill="white"/>
</svg>
