<svg width="60" height="60" viewBox="0 0 60 60" fill="none" xmlns="http://www.w3.org/2000/svg">
<circle cx="30" cy="30" r="29.5" transform="rotate(-90 30 30)" fill="white" fill-opacity="0.1" stroke="white"/>
<path fill-rule="evenodd" clip-rule="evenodd" d="M18 30.2877C18 30.0729 18.0734 29.867 18.204 29.7152C18.3346 29.5633 18.5117 29.478 18.6964 29.478L40.3713 29.478L35.9883 24.3839C35.8575 24.2319 35.784 24.0257 35.784 23.8107C35.784 23.5957 35.8575 23.3896 35.9883 23.2375C36.119 23.0855 36.2964 23.0001 36.4813 23.0001C36.6662 23.0001 36.8436 23.0855 36.9743 23.2375L42.5454 29.7144C42.6103 29.7896 42.6617 29.879 42.6968 29.9774C42.7319 30.0757 42.75 30.1812 42.75 30.2876C42.75 30.3941 42.7319 30.4996 42.6968 30.5979C42.6617 30.6963 42.6103 30.7857 42.5454 30.8609L36.9743 37.3378C36.8436 37.4898 36.6662 37.5752 36.4813 37.5752C36.2964 37.5752 36.119 37.4898 35.9883 37.3378C35.8575 37.1857 35.784 36.9796 35.784 36.7646C35.784 36.5496 35.8575 36.3434 35.9883 36.1914L40.3713 31.0973L18.6964 31.0973C18.5117 31.0973 18.3346 31.012 18.204 30.8601C18.0734 30.7083 18 30.5024 18 30.2877Z" fill="white"/>
</svg>
