<svg width="179" height="31" viewBox="0 0 179 31" fill="none" xmlns="http://www.w3.org/2000/svg">
<g clip-path="url(#clip0_421_10517)">
<path d="M46.035 3.21958C45.3855 8.79964 42.8416 12.3693 40.2023 15.3746C42.8416 18.3824 45.3855 21.9521 46.035 27.5296C46.0772 27.8855 46.0436 28.2464 45.9361 28.5884C45.8287 28.9304 45.6501 29.2458 45.4119 29.5137C45.1737 29.7816 44.8814 29.9959 44.5543 30.1426C44.2272 30.2893 43.8728 30.365 43.5143 30.3647C42.8958 30.3679 42.2976 30.1435 41.8338 29.7343C41.3699 29.3251 41.0727 28.7597 40.9988 28.1456C40.5451 24.215 38.8827 21.6428 36.7873 19.1917C34.6893 21.6428 33.0269 24.215 32.5758 28.1456C32.5007 28.7597 32.2028 29.3248 31.7387 29.7339C31.2745 30.1429 30.6764 30.3674 30.0577 30.3647H29.7639C29.1452 30.3674 28.5471 30.1429 28.0829 29.7339C27.6188 29.3248 27.3209 28.7597 27.2458 28.1456C26.7947 24.215 25.1323 21.6428 23.0369 19.1917C20.9312 21.6222 19.2687 24.1944 18.8151 28.1249C18.7406 28.7388 18.4432 29.304 17.9795 29.713C17.5158 30.1221 16.918 30.3467 16.2996 30.3441H16.0032C15.3847 30.3472 14.7865 30.1229 14.3227 29.7137C13.8588 29.3045 13.5616 28.739 13.4877 28.1249C13.034 24.1944 11.3716 21.6248 9.27877 19.1711C7.18335 21.6248 5.52093 24.1944 5.06731 28.1249C4.99332 28.739 4.69612 29.3045 4.23227 29.7137C3.76842 30.1229 3.17031 30.3472 2.55177 30.3441C2.19503 30.3452 1.84207 30.2709 1.51607 30.126C1.19006 29.9811 0.898358 29.769 0.660096 29.5035C0.421835 29.2379 0.242397 28.9251 0.133549 28.5853C0.0247009 28.2456 -0.011097 27.8867 0.0285029 27.5321C0.879043 20.0577 4.80699 16.6169 9.27361 11.5523C11.4773 8.9414 13.0366 6.48772 13.4799 2.60359C13.5545 1.98927 13.8522 1.42377 14.3165 1.01462C14.7808 0.605475 15.3792 0.381203 15.998 0.38445H16.2996C16.921 0.385952 17.5202 0.615291 17.9838 1.02903C18.4474 1.44276 18.7432 2.01216 18.8151 2.62936C18.9976 4.33268 19.4793 5.99045 20.2378 7.52641C20.5221 8.08943 20.6294 8.72526 20.5457 9.35038C20.462 9.97551 20.1911 10.5607 19.7688 11.0291L19.7327 11.0703C19.4975 11.3298 19.2043 11.53 18.877 11.6544C18.5496 11.7789 18.1975 11.8241 17.8493 11.7864C17.5012 11.7487 17.1669 11.6291 16.8738 11.4375C16.5807 11.2458 16.3371 10.9875 16.163 10.6837L16.1475 10.6554C15.1686 12.3424 14.0135 13.9209 12.7015 15.3643C14.0146 16.8129 15.1705 18.3965 16.1501 20.0886C18.0058 16.7612 20.6038 14.3617 23.024 11.56C25.1968 8.98263 26.7844 6.51091 27.2303 2.61132C27.3031 1.9956 27.6001 1.42824 28.0646 1.01751C28.529 0.606778 29.1284 0.381425 29.7484 0.38445H30.05C30.6718 0.385321 31.2717 0.614377 31.7358 1.02817C32.2 1.44196 32.4961 2.01172 32.5681 2.62936C32.7494 4.33293 33.2311 5.9909 33.9908 7.52641C34.2754 8.0895 34.3827 8.72564 34.2985 9.35094C34.2143 9.97623 33.9426 10.5613 33.5192 11.0291L33.4856 11.0703C33.2505 11.3298 32.9573 11.53 32.6299 11.6544C32.3026 11.7789 31.9505 11.8241 31.6023 11.7864C31.2542 11.7487 30.9199 11.6291 30.6268 11.4375C30.3337 11.2458 30.0901 10.9875 29.916 10.6837L29.8979 10.6425C28.9181 12.3336 27.7622 13.9163 26.4494 15.3643C27.7616 16.8136 28.9175 18.3971 29.8979 20.0886C30.6879 18.7072 31.6052 17.4025 32.6377 16.1916C32.8748 15.9107 33.1068 15.6375 33.3465 15.3643C34.4676 14.0756 35.6661 12.8461 36.7692 11.56C38.991 8.92593 40.5322 6.48514 40.973 2.61389C41.0464 1.99683 41.3446 1.42843 41.8105 1.0172C42.2764 0.605975 42.8774 0.380725 43.4988 0.38445H43.5143C43.8728 0.384136 44.2272 0.459819 44.5543 0.606508C44.8814 0.753198 45.1737 0.96756 45.4119 1.23546C45.6501 1.50336 45.8287 1.81871 45.9361 2.16071C46.0436 2.50272 46.0772 2.86361 46.035 3.21958ZM6.64725 7.81765C5.79916 6.20291 5.26315 4.44273 5.06731 2.62936C4.99642 2.01127 4.7006 1.44087 4.23621 1.02687C3.77182 0.612861 3.17133 0.384196 2.54919 0.38445C2.19156 0.382198 1.8375 0.455767 1.51037 0.600308C1.18323 0.744849 0.89044 0.957079 0.651296 1.22301C0.412151 1.48894 0.232082 1.80254 0.122956 2.14313C0.0138294 2.48372 -0.0218758 2.84357 0.0181934 3.19896C0.286117 5.6572 1.01816 8.04226 2.17547 10.2275C2.36368 10.5859 2.63569 10.8936 2.96835 11.1243C3.30102 11.3549 3.68449 11.5019 4.08614 11.5525C4.48779 11.6031 4.89572 11.5559 5.27522 11.415C5.65472 11.274 5.99455 11.0435 6.2658 10.743L6.30703 10.6966C6.65313 10.3101 6.87153 9.82617 6.93242 9.31093C6.99331 8.79568 6.89372 8.2742 6.64725 7.81765Z" fill="white"/>
<path d="M74.363 25.0449H71.4918L71.2856 22.6118C69.966 24.4753 67.9969 25.4057 65.4349 25.4057C62.7699 25.4057 60.5714 24.5268 58.8368 22.7922C57.9944 21.9729 57.3281 20.9903 56.8787 19.9045C56.4293 18.8187 56.2063 17.6526 56.2233 16.4776C56.2233 13.7353 57.1022 11.4826 58.8883 9.72225C60.6745 7.96189 62.8885 7.08558 65.5406 7.08558C67.5038 7.05884 69.4247 7.6573 71.0253 8.79439C72.631 9.90782 73.6645 11.511 74.1568 13.6064H70.1722C69.4737 11.6141 67.9453 10.6321 65.5921 10.6321C63.9349 10.6321 62.5895 11.1475 61.5534 12.2094C60.5173 13.2713 60.0069 14.6683 60.0069 16.4544C59.9914 17.1603 60.1159 17.8622 60.3734 18.5196C60.6309 19.177 61.0162 19.7769 61.507 20.2844C62.5173 21.3154 63.8369 21.8308 65.4659 21.8308C67.8474 21.8308 69.5304 20.5885 70.332 18.5447H65.1256V15.2353H74.363V25.0449Z" fill="white"/>
<path d="M89.9511 25.0448H86.3427V24.1634C85.3454 24.9881 84.0904 25.4369 82.7962 25.4315C81.1673 25.4315 79.8477 24.8885 78.8374 23.8025C77.8528 22.7149 77.3631 21.2664 77.3631 19.4803V12.6476H80.9586V19.1426C80.9586 21.1092 81.9431 22.1711 83.6262 22.1711C84.5815 22.1711 85.487 21.6556 86.3427 20.6246V12.6476H89.9511V25.0448Z" fill="white"/>
<path d="M96.7012 25.0449H93.0929V6.66809H96.7012V25.0449Z" fill="white"/>
<path d="M110.029 12.6477V15.6761H105.317V25.0449H101.722V15.6761H98.4075V12.6477H101.722V10.8873C101.722 9.20428 102.212 7.85888 103.17 6.85112C104.129 5.84336 105.423 5.30469 107 5.30469C108.033 5.3187 109.059 5.4642 110.055 5.73769L109.562 8.83056C108.959 8.69258 108.343 8.61488 107.725 8.5986C106.276 8.5986 105.317 9.50326 105.317 10.8744V12.6606L110.029 12.6477Z" fill="white"/>
<path d="M136.945 25.0449H133.192V15.493L128.792 22.403H126.591V22.3773L122.168 15.4157L122.22 25.0449H118.439V7.44641H121.137L127.71 17.7972L134.282 7.44641H136.95L136.945 25.0449Z" fill="white"/>
<path d="M152.324 20.1529H143.285C143.726 21.6272 144.762 22.3515 146.391 22.3515C147.401 22.3515 148.101 22.0413 148.489 21.421H152.239C151.592 23.8025 149.239 25.3284 146.311 25.3284C144.344 25.3284 142.739 24.7072 141.496 23.4907C140.891 22.8828 140.416 22.1579 140.101 21.3602C139.785 20.5625 139.636 19.7088 139.661 18.8514C139.661 16.9621 140.254 15.4337 141.465 14.2121C142.677 12.9904 144.301 12.377 146.254 12.377C148.015 12.377 149.463 12.944 150.636 14.109C151.809 15.2739 152.396 16.7482 152.396 18.5859C152.408 19.1093 152.384 19.6329 152.324 20.1529ZM143.234 17.6529H148.824C148.618 16.2044 147.633 15.3487 146.159 15.3487C144.605 15.3332 143.623 16.1064 143.234 17.6529Z" fill="white"/>
<path d="M164.456 24.8697C163.375 25.2321 162.245 25.4243 161.105 25.4393C158.103 25.4393 156.136 23.3181 156.136 20.1092V15.6761H153.535V12.6477H156.149V8.22229H159.721V12.6477H164.198V15.6761H159.721V20.0757C159.721 21.4469 160.445 22.1196 161.894 22.1196C162.604 22.0972 163.309 21.982 163.989 21.7768L164.456 24.8697Z" fill="white"/>
<path d="M179 25.0449H175.392V24.3181C174.338 24.9793 173.115 25.3213 171.871 25.3027C171.051 25.3142 170.238 25.1544 169.483 24.8335C168.729 24.5126 168.05 24.0377 167.489 23.4392C166.9 22.8338 166.436 22.117 166.127 21.3306C165.817 20.5443 165.667 19.7042 165.685 18.8592C165.662 18.0136 165.81 17.172 166.12 16.385C166.43 15.598 166.896 14.8817 167.489 14.2792C168.045 13.6725 168.722 13.1905 169.478 12.8649C170.233 12.5392 171.049 12.3774 171.871 12.3899C173.115 12.3706 174.337 12.7116 175.392 13.3719V12.6477H179V25.0449ZM175.392 20.8258V16.8798C175.062 16.4144 174.623 16.0381 174.112 15.7848C173.602 15.5315 173.036 15.4091 172.466 15.4287C172.031 15.4167 171.599 15.5011 171.201 15.6758C170.803 15.8504 170.448 16.1111 170.162 16.439C169.578 17.1102 169.257 17.9697 169.257 18.8592C169.257 19.7487 169.578 20.6082 170.162 21.2794C170.453 21.5989 170.81 21.8519 171.207 22.0214C171.605 22.1908 172.034 22.2727 172.466 22.2614C173.036 22.2807 173.602 22.1599 174.114 21.9096C174.626 21.6593 175.07 21.2872 175.404 20.8258H175.392Z" fill="white"/>
</g>
<defs>
<clipPath id="clip0_421_10517">
<rect width="179" height="29.9596" fill="white" transform="translate(0 0.384399)"/>
</clipPath>
</defs>
</svg>
